<?xml version="1.0" encoding="UTF-8" standalone="no"?>
<!DOCTYPE svg PUBLIC "-//W3C//DTD SVG 1.1//EN" "http://www.w3.org/Graphics/SVG/1.1/DTD/svg11.dtd">
<svg width="100%" height="100%" viewBox="0 0 512 512" version="1.1" xmlns="http://www.w3.org/2000/svg" xmlns:xlink="http://www.w3.org/1999/xlink" xml:space="preserve" xmlns:serif="http://www.serif.com/" style="fill-rule:evenodd;clip-rule:evenodd;stroke-linecap:round;stroke-linejoin:round;stroke-miterlimit:1.5;">
    <rect id="ArtBoard1" x="0" y="0" width="512" height="512" style="fill:none;"/>
    <g id="ArtBoard11" serif:id="ArtBoard1">
        <g transform="matrix(0.384354,0,0,0.426871,153.586,196.893)">
            <path d="M33,357C72.609,357.632 144,282 144,282C144,282 106.58,356.793 180,357" style="fill:none;stroke:rgb(41,163,202);stroke-width:19.87px;"/>
        </g>
        <g transform="matrix(0.384354,0,0,0.426871,97.086,196.893)">
            <path d="M33,357C72.609,357.632 144,282 144,282C144,282 106.58,356.793 180,357" style="fill:none;stroke:rgb(41,163,202);stroke-width:19.87px;"/>
        </g>
        <g transform="matrix(0.426871,0,0,0.426871,64.3079,247.653)">
            <path d="M33,357C72.609,357.632 144,282 144,282C144,282 106.58,356.793 180,357" style="fill:none;stroke:rgb(41,163,202);stroke-width:18.91px;"/>
        </g>
        <g transform="matrix(0.384354,0,0,0.426871,210.086,196.893)">
            <path d="M33,357C72.609,357.632 144,282 144,282C144,282 106.58,356.793 180,357" style="fill:none;stroke:rgb(41,163,202);stroke-width:19.87px;"/>
        </g>
        <g transform="matrix(0.426871,0,0,0.426871,127.058,247.653)">
            <path d="M33,357C72.609,357.632 144,282 144,282C144,282 106.58,356.793 180,357" style="fill:none;stroke:rgb(41,163,202);stroke-width:18.91px;"/>
        </g>
        <g transform="matrix(0.384354,0,0,0.426871,266.586,196.893)">
            <path d="M33,357C72.609,357.632 144,282 144,282C144,282 106.58,356.793 180,357" style="fill:none;stroke:rgb(41,163,202);stroke-width:19.87px;"/>
        </g>
        <g transform="matrix(1,0,0,1,-4.13007,-16.9605)">
            <ellipse cx="339.5" cy="442.5" rx="125.5" ry="41.5" style="fill:rgb(254,205,3);"/>
        </g>
        <g transform="matrix(1.20798,0,0,1.20798,-258.931,-240.514)">
            <path d="M444.169,272.44L455.313,271.131L455.975,264.188L456.592,270.98L466.239,269.847L467.822,259.04L468.847,269.541L482.291,267.961L483.736,257.772L485.324,267.605L501.485,265.706L502.247,256.316L503.497,265.47L517.156,263.865L517.695,257.954L518.469,263.711L529.995,262.357L530.507,258.416L531.095,262.227L539.848,261.199C537.812,222.07 441.807,232.051 444.169,272.44Z" style="fill:rgb(148,173,60);"/>
        </g>
        <g transform="matrix(1.20798,0,0,1.20798,-258.931,-240.514)">
            <path d="M503.497,265.468L502.755,260.031L517.69,258.012L517.156,263.863L503.497,265.468ZM485.323,267.604L484.499,262.498L501.937,260.142L501.485,265.705L485.323,267.604ZM468.847,269.54L468.426,265.224L478.205,263.349L483.038,262.697L482.291,267.96L468.847,269.54ZM456.592,270.98L456.28,267.552L466.874,265.521L466.241,269.847L456.592,270.98ZM444.169,272.44L455.313,271.131L455.642,267.674L450.952,268.573L451.122,268.141L453.41,262.515L454.306,253.119L455.188,262.831L467.401,259.912L469.522,245.423L470.758,258.091L481.98,256.213L484.019,241.836L485.918,253.603L500.141,251.699L500.97,241.485L502.693,254.098L519.106,252.052L519.81,244.33L521.029,253.385L529.752,255.299L530.689,248.068L531.926,256.088L517.703,258.011L518.469,263.709L529.995,262.354L530.507,258.416L531.095,262.226L539.848,261.197C537.815,221.868 441.81,231.844 444.169,272.44Z" style="fill:rgb(185,213,50);"/>
        </g>
        <g transform="matrix(1.20798,0,0,1.20798,-258.931,-240.514)">
            <path d="M444.169,272.44L455.311,271.156L455.975,264.188L456.594,271.008L466.232,269.896L467.822,259.04L468.853,269.595L482.279,268.047L483.736,257.772L485.338,267.694L501.475,265.834L502.247,256.316L503.516,265.599L517.142,264.028L517.695,257.954L518.492,263.872L529.971,262.549L530.507,258.416L531.124,262.416L539.845,261.411C537.522,238.424 441.512,248.725 444.169,272.44Z" style="fill:rgb(148,173,60);"/>
        </g>
        <g transform="matrix(1.20798,0,0,1.20798,-258.931,-240.514)">
            <path d="M448.313,267.71L460.33,275.204L464.568,269.759L461.708,276.063L472.112,282.551L479.273,274.501L474.923,284.304L489.422,293.345L496.124,285.719L492.691,295.384L510.119,306.251L515.716,298.784L512.289,307.605L527.018,316.789L530.603,312.133L528.435,317.672L540.862,325.422L543.407,322.436L542.049,326.162L551.487,332.048C569.509,296.898 466.648,231.225 448.313,267.71Z" style="fill:rgb(148,173,60);"/>
        </g>
        <g transform="matrix(1.20798,0,0,1.20798,-258.931,-240.514)">
            <path d="M512.289,307.603L514.326,302.364L530.566,312.18L527.02,316.787L512.289,307.603ZM492.691,295.382L494.474,290.364L513.437,301.826L510.12,306.25L492.691,295.382ZM474.924,284.304L476.712,280.274L487.63,286.227L492.886,289.405L489.423,293.344L474.924,284.304ZM461.709,276.063L463.152,272.88L474.979,279.329L472.113,282.551L461.709,276.063ZM448.313,267.71L460.33,275.203L462.439,272.492L457.203,269.636L457.598,269.397L462.817,266.338L468.554,258.969L464.465,267.985L478.396,274.925L487.997,264.132L482.75,275.956L495.138,283.023L504.596,272.262L500.486,283.829L515.943,293.192L522.031,285.069L517.31,297.224L535.07,308.16L539.751,302.079L536.341,310.791L544.239,319.178L548.908,313.699L546.048,321.537L530.581,312.188L528.436,317.671L540.864,325.421L543.407,322.436L542.049,326.16L551.488,332.046C569.617,296.726 466.758,231.051 448.313,267.71Z" style="fill:rgb(185,213,50);"/>
        </g>
        <g transform="matrix(1.20798,0,0,1.20798,-258.931,-240.514)">
            <path d="M448.313,267.71L460.314,275.223L464.568,269.759L461.697,276.089L472.08,282.588L479.273,274.501L474.901,284.354L489.366,293.409L496.124,285.719L492.659,295.472L510.042,306.353L515.716,298.784L512.241,307.729L526.919,316.918L530.603,312.133L528.374,317.828L540.739,325.568L543.407,322.436L541.981,326.347L551.374,332.226C560.816,310.706 457.786,245.305 448.313,267.71Z" style="fill:rgb(148,173,60);"/>
        </g>
        <g transform="matrix(1.20798,0,0,1.20798,-258.931,-240.514)">
            <path d="M461.249,272.448L450.105,272.707L449.443,265.857L448.827,272.737L439.179,272.961L437.596,262.376L436.571,273.021L423.127,273.334L421.682,263.348L420.095,273.404L403.934,273.78L403.171,264.497L401.921,273.827L388.262,274.144L387.724,268.308L386.948,274.175L375.424,274.442L374.911,270.574L374.323,274.468L365.57,274.672C367.607,235.256 463.612,231.726 461.249,272.448Z" style="fill:rgb(148,173,60);"/>
        </g>
        <g transform="matrix(1.20798,0,0,1.20798,-258.931,-240.514)">
            <path d="M401.921,273.826L402.664,268.283L387.729,268.367L388.262,274.142L401.921,273.826ZM420.096,273.403L420.919,268.182L403.481,268.279L403.934,273.778L420.096,273.403ZM436.571,273.021L436.993,268.645L427.214,268.147L422.38,268.173L423.127,273.333L436.571,273.021ZM448.827,272.736L449.139,269.264L438.544,268.724L439.178,272.96L448.827,272.736ZM461.249,272.448L450.105,272.706L449.776,269.296L454.467,269.535L454.297,269.127L452.009,263.822L451.112,254.553L450.23,264.389L438.018,263.19L435.896,248.998L434.661,261.84L423.438,261.542L421.4,247.452L419.501,259.486L405.277,259.583L404.449,249.486L402.727,262.342L386.313,262.604L385.608,254.983L384.391,264.209L375.667,267.35L374.729,260.251L373.492,268.446L387.716,268.367L386.948,274.172L375.424,274.44L374.911,270.574L374.325,274.466L365.57,274.669C367.603,235.053 463.608,231.519 461.249,272.448Z" style="fill:rgb(185,213,50);"/>
        </g>
        <g transform="matrix(1.20798,0,0,1.20798,-258.931,-240.514)">
            <path d="M461.249,272.448L450.108,272.731L449.443,265.857L448.824,272.764L439.186,273.009L437.596,262.376L436.567,273.076L423.139,273.418L421.682,263.348L420.08,273.495L403.944,273.907L403.171,264.497L401.903,273.958L388.276,274.305L387.724,268.308L386.927,274.339L375.448,274.631L374.911,270.574L374.295,274.661L365.574,274.883C367.896,251.569 463.907,248.358 461.249,272.448Z" style="fill:rgb(148,173,60);"/>
        </g>
        <g transform="matrix(1.20798,0,0,1.20798,-258.931,-240.514)">
            <path d="M455.011,275.808L442.995,283.301L438.756,277.856L441.615,284.162L431.211,290.65L424.052,282.599L428.4,292.402L413.902,301.443L407.199,293.817L410.633,303.482L393.204,314.35L387.606,306.882L391.035,315.704L376.306,324.888L372.721,320.232L374.89,325.771L362.461,333.521L359.917,330.535L361.276,334.261L351.836,340.146C333.815,304.996 436.677,239.324 455.011,275.808Z" style="fill:rgb(148,173,60);"/>
        </g>
        <g transform="matrix(1.20798,0,0,1.20798,-258.931,-240.514)">
            <path d="M391.034,315.702L388.998,310.462L372.757,320.278L376.305,324.886L391.034,315.702ZM410.633,303.481L408.85,298.463L389.888,309.924L393.204,314.349L410.633,303.481ZM428.4,292.401L426.613,288.372L415.694,294.326L410.438,297.502L413.901,301.442L428.4,292.401ZM441.615,284.162L440.171,280.978L428.345,287.428L431.211,290.649L441.615,284.162ZM455.011,275.808L442.995,283.301L440.884,280.59L446.121,277.735L445.727,277.495L440.507,274.436L434.771,267.067L438.859,276.083L424.928,283.024L415.327,272.23L420.575,284.055L408.188,291.121L398.729,280.36L402.837,291.927L387.381,301.29L381.291,293.167L386.016,305.322L368.254,316.258L363.572,310.178L366.982,318.889L359.085,327.276L354.416,321.797L357.276,329.635L372.743,320.287L374.89,325.769L362.46,333.519L359.917,330.535L361.274,334.258L351.835,340.144C333.708,304.825 436.565,239.149 455.011,275.808Z" style="fill:rgb(185,213,50);"/>
        </g>
        <g transform="matrix(1.20798,0,0,1.20798,-258.931,-240.514)">
            <path d="M455.011,275.808L443.01,283.321L438.756,277.856L441.627,284.187L431.244,290.686L424.052,282.599L428.423,292.453L413.959,301.508L407.199,293.817L410.664,303.57L393.281,314.452L387.606,306.882L391.083,315.827L376.404,325.016L372.721,320.232L374.95,325.927L362.585,333.667L359.917,330.535L361.343,334.444L351.949,340.325C342.507,318.805 445.539,253.403 455.011,275.808Z" style="fill:rgb(148,173,60);"/>
        </g>
        <g transform="matrix(1.20798,0,0,1.20798,-258.931,-240.514)">
            <path d="M544.139,550.671C557.069,437.439 514.262,345.86 459.688,262.582C456.115,257.13 447.456,274.301 450.704,279.952C499.406,364.663 516.119,453.744 503.242,550.35C501.417,564.041 542.571,564.393 544.139,550.671Z" style="fill:rgb(157,96,43);"/>
        </g>
        <g transform="matrix(1.20798,0,0,1.20798,-258.931,-240.514)">
            <path d="M455.094,263.356C451.693,267.219 448.528,276.167 450.704,279.952C499.406,364.663 516.119,453.744 503.242,550.35C501.729,561.704 529.771,563.883 540.284,556.471C530.467,559.619 513.687,554.952 515.247,544.876C524.386,440.807 507.102,352.426 452.351,277.106C451.107,273.944 452.245,269.214 455.094,263.356Z" style="fill:rgb(116,64,25);"/>
        </g>
        <g transform="matrix(1.20798,0,0,1.20798,-258.931,-240.514)">
            <path d="M511.907,522.149L543.052,520.203L513.853,518.254L513.853,481.42L540.955,477.528L514.901,477.079L512.505,441.741L533.618,437.847L511.308,437.698L505.468,401.013L523.885,396.67L503.82,396.22L494.986,364.327L511.456,361.932L493.788,360.584L485.253,337.226L497.383,330.787L482.559,333.033L472.676,312.07L483.606,305.183L469.682,308.626L460.997,292.605L470.58,285.567L458.601,290.209L460.847,295.449L474.922,323.6L488.698,356.242L499.928,396.22L510.26,454.767L511.907,522.149Z" style="fill:rgb(116,64,25);"/>
        </g>
    </g>
</svg>
