<?xml version="1.0" encoding="UTF-8" standalone="no"?>
<!DOCTYPE svg PUBLIC "-//W3C//DTD SVG 1.1//EN" "http://www.w3.org/Graphics/SVG/1.1/DTD/svg11.dtd">
<svg width="100%" height="100%" viewBox="0 0 312 612" version="1.1" xmlns="http://www.w3.org/2000/svg" xmlns:xlink="http://www.w3.org/1999/xlink" xml:space="preserve" xmlns:serif="http://www.serif.com/" style="fill-rule:evenodd;clip-rule:evenodd;stroke-linecap:round;stroke-linejoin:round;stroke-miterlimit:1.5;">
    <g id="ArtBoard1" transform="matrix(0.789873,0,0,0.95625,0,-18.1687)">
        <rect x="0" y="19" width="395" height="640" style="fill:none;"/>
        <clipPath id="_clip1">
            <rect x="0" y="19" width="395" height="640"/>
        </clipPath>
        <g clip-path="url(#_clip1)">
            <g transform="matrix(1.26603,0,0,1.04575,-48.109,-20.2157)">
                <g transform="matrix(1,0,0,1,-23,-11)">
                    <path d="M373,216.2C373,198.98 359.02,185 341.8,185L92.2,185C74.98,185 61,198.98 61,216.2L61,579.8C61,597.02 74.98,611 92.2,611L341.8,611C359.02,611 373,597.02 373,579.8L373,216.2Z" style="fill:rgb(23,41,64);"/>
                </g>
                <g transform="matrix(0.699531,0,0,0.699531,42.2019,160.587)">
                    <path d="M373,263C373,219.951 338.049,185 295,185L139,185C95.951,185 61,219.951 61,263L61,579.8C61,597.02 74.98,611 92.2,611L341.8,611C359.02,611 373,597.02 373,579.8L373,263Z" style="fill:none;stroke:white;stroke-width:14.3px;"/>
                </g>
            </g>
        </g>
    </g>
</svg>
