<?xml version="1.0" encoding="UTF-8" standalone="no"?>
<!DOCTYPE svg PUBLIC "-//W3C//DTD SVG 1.1//EN" "http://www.w3.org/Graphics/SVG/1.1/DTD/svg11.dtd">
<svg width="100%" height="100%" viewBox="0 0 312 612" version="1.1" xmlns="http://www.w3.org/2000/svg" xmlns:xlink="http://www.w3.org/1999/xlink" xml:space="preserve" xmlns:serif="http://www.serif.com/" style="fill-rule:evenodd;clip-rule:evenodd;stroke-linejoin:round;stroke-miterlimit:2;">
    <g id="ArtBoard1" transform="matrix(0.789873,0,0,0.95625,0,-18.1687)">
        <rect x="0" y="19" width="395" height="640" style="fill:none;"/>
        <g>
            <g transform="matrix(1.1406,0,0,0.757268,-23.9211,149.34)">
                <path d="M97,602.465C97,598.345 94.311,595 91,595L79,595C75.689,595 73,598.345 73,602.465L73,645.535C73,649.655 75.689,653 79,653L91,653C94.311,653 97,649.655 97,645.535L97,602.465Z" style="fill:rgb(23,41,64);"/>
            </g>
            <g transform="matrix(1.1406,0,0,0.757268,7.43618,149.34)">
                <path d="M97,602.465C97,598.345 94.311,595 91,595L79,595C75.689,595 73,598.345 73,602.465L73,645.535C73,649.655 75.689,653 79,653L91,653C94.311,653 97,649.655 97,645.535L97,602.465Z" style="fill:rgb(23,41,64);"/>
            </g>
            <g transform="matrix(1.1406,0,0,0.757268,225.019,149.34)">
                <path d="M97,602.465C97,598.345 94.311,595 91,595L79,595C75.689,595 73,598.345 73,602.465L73,645.535C73,649.655 75.689,653 79,653L91,653C94.311,653 97,649.655 97,645.535L97,602.465Z" style="fill:rgb(23,41,64);"/>
            </g>
            <g transform="matrix(1.1406,0,0,0.757268,193.662,149.34)">
                <path d="M97,602.465C97,598.345 94.311,595 91,595L79,595C75.689,595 73,598.345 73,602.465L73,645.535C73,649.655 75.689,653 79,653L91,653C94.311,653 97,649.655 97,645.535L97,602.465Z" style="fill:rgb(23,41,64);"/>
            </g>
            <g transform="matrix(1.10287,0,0,0.986717,26.872,-7.55703)">
                <rect x="120.453" y="55" width="10.811" height="124" style="fill:rgb(23,41,64);"/>
            </g>
            <g transform="matrix(1.10287,0,0,0.986717,90.5164,-7.55703)">
                <rect x="120.453" y="55" width="10.811" height="124" style="fill:rgb(23,41,64);"/>
            </g>
            <g transform="matrix(1.26603,0,0,1.04575,-77.2276,-31.719)">
                <path d="M373,216.2C373,198.98 359.02,185 341.8,185L92.2,185C74.98,185 61,198.98 61,216.2L61,579.8C61,597.02 74.98,611 92.2,611L341.8,611C359.02,611 373,597.02 373,579.8L373,216.2ZM353,216.2L353,579.8C353,585.981 347.981,591 341.8,591L92.2,591C86.019,591 81,585.981 81,579.8L81,216.2C81,210.019 86.019,205 92.2,205L341.8,205C347.981,205 353,210.019 353,216.2Z" style="fill:rgb(23,41,64);"/>
            </g>
            <g transform="matrix(1.40868,0,0,1.32462,-76.4876,-20.146)">
                <path d="M230,44.75C230,42.68 228.087,41 225.731,41L163.269,41C160.913,41 159,42.68 159,44.75L159,52.25C159,54.32 160.913,56 163.269,56L225.731,56C228.087,56 230,54.32 230,52.25L230,44.75Z" style="fill:rgb(23,41,64);"/>
            </g>
        </g>
    </g>
</svg>
