<?xml version="1.0" standalone="no"?>
<!DOCTYPE svg PUBLIC "-//W3C//DTD SVG 20010904//EN"
 "http://www.w3.org/TR/2001/REC-SVG-20010904/DTD/svg10.dtd">
<svg version="1.0" xmlns="http://www.w3.org/2000/svg"
 width="1280.000000pt" height="699.000000pt" viewBox="0 0 1280.000000 699.000000"
 preserveAspectRatio="xMidYMid meet">
<g transform="translate(0.000000,699.000000) scale(0.100000,-0.100000)"
fill="#000000" stroke="none">
<path d="M4645 5896 c-49 -5 -197 -10 -328 -10 -130 0 -234 -3 -230 -7 5 -4
30 -16 58 -26 52 -19 54 -22 75 -110 12 -49 32 -55 56 -18 19 28 36 32 54 10
7 -8 23 -15 37 -15 18 0 23 -4 19 -17 -3 -13 21 -39 86 -93 50 -41 109 -91
132 -111 253 -222 290 -250 326 -247 54 5 49 -22 -13 -57 -28 -16 -52 -35 -52
-41 0 -7 40 -46 88 -88 48 -43 87 -83 85 -89 -1 -7 2 -22 6 -35 6 -19 0 -32
-39 -73 -26 -28 -45 -53 -42 -56 7 -6 92 13 167 39 l54 18 31 -22 c90 -66 505
-424 505 -437 0 -8 -25 -40 -55 -72 -86 -90 -74 -98 75 -49 50 17 95 30 99 30
4 0 56 -41 116 -91 76 -63 114 -89 127 -85 22 5 35 -18 20 -37 -8 -9 -2 -30
19 -75 17 -34 29 -70 27 -79 -2 -11 -28 -26 -68 -41 -36 -14 -175 -67 -309
-118 -134 -52 -253 -94 -266 -94 -12 0 -28 -7 -35 -15 -7 -8 -17 -15 -22 -15
-5 0 -217 -77 -471 -171 -254 -94 -577 -213 -717 -264 -140 -51 -379 -141
-530 -199 -151 -58 -281 -106 -288 -106 -7 0 -68 -23 -135 -50 -203 -84 -170
-95 -1159 400 -904 454 -830 426 -983 371 -253 -89 -378 -137 -382 -147 -2 -6
18 -44 45 -85 27 -41 85 -128 129 -194 126 -189 203 -315 203 -331 0 -9 -10
-14 -29 -14 -35 0 -181 -44 -231 -70 -19 -10 -55 -23 -80 -30 l-45 -12 70 -67
c39 -36 204 -189 368 -340 164 -150 296 -278 294 -285 -2 -6 -57 -41 -121 -78
-133 -77 -258 -162 -298 -205 -24 -26 -27 -34 -25 -101 l2 -74 200 6 c110 4
263 11 339 17 110 7 142 7 152 -3 7 -9 17 -116 27 -306 8 -161 17 -296 20
-299 7 -6 236 71 286 97 48 24 53 30 159 205 50 83 129 206 174 275 l83 125
375 47 c619 77 1304 194 1710 294 197 49 605 181 1045 339 148 53 283 96 300
96 85 0 364 21 460 35 61 9 171 32 245 51 199 52 183 56 257 -61 35 -55 63
-104 63 -109 0 -5 -27 -37 -60 -71 -56 -59 -72 -86 -51 -86 6 0 45 13 87 30
58 22 81 27 91 19 19 -17 16 -38 -12 -75 -29 -38 -30 -44 -9 -44 14 0 15 -8 9
-48 -18 -127 -25 -144 -86 -208 -33 -33 -59 -64 -59 -67 0 -4 21 -4 46 0 l46
6 -6 -29 c-3 -16 -15 -83 -27 -149 -11 -66 -27 -130 -36 -143 -8 -13 -12 -30
-9 -38 4 -9 -12 -34 -39 -63 -25 -26 -45 -53 -45 -60 0 -12 71 -5 102 10 11 6
19 5 24 -2 7 -12 -55 -338 -67 -353 -5 -5 -42 -8 -83 -7 -42 1 -76 -2 -76 -6
0 -4 24 -19 52 -33 52 -25 53 -26 68 -90 21 -85 36 -87 83 -12 51 82 107 130
224 191 56 30 121 71 144 92 49 44 52 45 73 24 8 -8 17 -15 20 -15 2 0 19 26
37 57 18 32 90 155 159 273 69 118 180 313 245 432 66 120 125 218 132 218 6
0 16 -7 21 -16 6 -11 17 -15 33 -11 13 3 65 14 116 26 50 11 125 25 165 31
135 19 360 71 498 116 164 53 468 180 565 236 105 61 115 72 115 132 -1 106
-71 346 -125 428 -18 28 -32 38 -51 38 -28 0 -150 -29 -253 -61 -35 -10 -77
-19 -95 -19 -17 0 -76 -13 -131 -29 -212 -61 -435 -104 -435 -83 0 6 32 78 72
161 l71 151 76 42 c136 74 314 189 421 272 58 45 134 96 170 114 36 19 256
103 490 187 1035 373 1569 590 1799 730 32 19 61 35 64 35 13 0 285 176 344
222 80 63 195 187 218 234 13 29 16 51 11 96 -6 60 -17 75 -89 127 -56 40
-266 90 -486 116 -111 13 -148 22 -220 53 l-86 37 -210 0 c-236 -1 -323 -13
-603 -85 -84 -22 -163 -40 -176 -40 -12 0 -26 -4 -31 -9 -10 -9 -1085 -402
-1482 -541 -188 -66 -228 -77 -248 -68 -31 14 -189 -12 -304 -51 -48 -16 -103
-31 -125 -34 -21 -4 -182 -45 -358 -92 -281 -76 -321 -85 -336 -73 -9 8 -224
121 -477 250 -520 266 -1063 555 -1473 782 -377 209 -505 276 -528 276 -10 0
-33 8 -49 18 -42 26 -67 29 -170 18z m257 -82 c23 -15 38 -29 32 -31 -14 -5
-104 46 -104 59 0 13 18 6 72 -28z m209 -110 c94 -51 124 -74 97 -74 -21 0
-191 94 -196 109 -6 19 13 12 99 -35z m280 -160 c92 -50 106 -60 96 -70 -6 -6
-183 92 -193 107 -11 18 16 8 97 -37z m300 -160 c54 -30 99 -59 99 -65 0 -5
-49 16 -110 46 -60 30 -110 60 -110 65 0 18 21 10 121 -46z m299 -164 c55 -28
100 -55 100 -60 0 -6 -2 -10 -5 -10 -10 0 -195 102 -201 111 -9 15 3 11 106
-41z m253 -136 c96 -48 178 -96 173 -101 -5 -5 -236 115 -236 123 0 8 11 4 63
-22z m283 -162 c-4 -3 -14 2 -24 12 -16 18 -16 18 6 6 13 -6 21 -14 18 -18z
m127 -52 c26 -16 47 -32 47 -34 0 -10 -104 41 -108 53 -6 18 11 13 61 -19z
m1623 -1911 c10 -17 -13 -36 -27 -22 -12 12 -4 33 11 33 5 0 12 -5 16 -11z"/>
</g>
</svg>
