<?xml version="1.0" encoding="UTF-8" standalone="no"?>
<!DOCTYPE svg PUBLIC "-//W3C//DTD SVG 1.1//EN" "http://www.w3.org/Graphics/SVG/1.1/DTD/svg11.dtd">
<svg width="100%" height="100%" viewBox="0 0 486 246" version="1.1" xmlns="http://www.w3.org/2000/svg" xmlns:xlink="http://www.w3.org/1999/xlink" xml:space="preserve" xmlns:serif="http://www.serif.com/" style="fill-rule:evenodd;clip-rule:evenodd;stroke-linejoin:round;stroke-miterlimit:2;">
    <g id="ArtBoard1" transform="matrix(0.949219,0,0,0.480469,0,0)">
        <rect x="0" y="0" width="512" height="512" style="fill:none;"/>
        <g transform="matrix(0.347308,0,0,0.686145,-494.355,-251.011)">
            <path d="M2299.14,629.13C2299.14,629.13 2708.96,502.401 2754.11,515.707C2799.27,529.013 2825.13,580.016 2790.73,597.734C2756.33,615.453 2291.97,683.414 2291.97,683.414L2299.14,629.13Z" style="fill:rgb(162,181,205);fill-rule:nonzero;"/>
        </g>
        <g transform="matrix(0.347308,0,0,0.686145,-494.355,-251.011)">
            <path d="M2780.86,529.346C2781.51,535.883 2780.05,542.784 2776.98,548.646C2771.69,558.767 2762.43,566.235 2752.72,572.252C2719.89,592.6 2680.61,599.091 2642.46,605.171C2608.38,610.604 2574.29,616.037 2540.21,621.469C2477.99,631.386 2415.77,641.303 2353.55,651.22C2334.94,654.186 2305.65,652.653 2293.77,670.063L2293.73,670.125L2291.98,683.414C2291.98,683.414 2756.33,615.453 2790.73,597.734C2817.5,583.944 2807.77,549.996 2780.86,529.346Z" style="fill:rgb(122,144,173);fill-rule:nonzero;"/>
        </g>
        <g transform="matrix(0.347308,0,0,0.686145,-494.355,-251.011)">
            <path d="M2327.36,640.426C2336.53,653.681 2348.34,665.103 2361.89,673.826C2342.33,675.31 2322.95,679.138 2304.29,685.201C2303.18,685.562 2294.92,637.622 2297.23,632.233C2299.18,627.681 2305.78,625.933 2310.23,625.006C2318.44,623.295 2323.26,634.508 2327.36,640.426Z" style="fill:rgb(161,169,180);fill-rule:nonzero;"/>
        </g>
        <g transform="matrix(0.347308,0,0,0.686145,-494.355,-251.011)">
            <path d="M2167.6,642.976C2163.98,656.038 2161.93,686.263 2176.89,691.404C2183.85,693.796 2185.69,723.493 2189.83,729.473C2191.91,732.473 2195.24,735.365 2199.61,735.651C2203.95,735.935 2207.96,733.453 2209.9,730.43C2211.85,727.408 2212.18,723.929 2212.44,720.554C2215.04,687.628 2215.5,654.602 2213.83,621.64C2212.9,603.291 2173.14,622.988 2167.6,642.976Z" style="fill:rgb(104,104,104);fill-rule:nonzero;"/>
        </g>
        <g transform="matrix(0.347308,0,0,0.686145,-494.355,-251.011)">
            <path d="M2303.23,619.308C2309.27,640.72 2312.62,662.891 2313.17,685.133C2277.09,695.228 2240.62,703.942 2203.87,711.252C2198.21,700.592 2193.27,689.388 2191.19,677.5C2185.7,646.145 2197.98,642.509 2224.61,636.638C2231.18,635.189 2303.05,618.651 2303.23,619.308Z" style="fill:rgb(104,104,104);fill-rule:nonzero;"/>
        </g>
        <g transform="matrix(0.347308,0,0,0.686145,-494.355,-251.011)">
            <path d="M2199.15,662.611C2199.34,663.585 2199.69,664.607 2200.5,665.184C2201.58,665.954 2203.06,665.671 2204.35,665.355C2232.05,658.582 2259.74,651.808 2287.43,645.035C2289.9,644.431 2292.44,643.79 2294.45,642.235C2296.46,640.68 2297.79,637.944 2296.93,635.555C2296.12,633.313 2293.63,632.04 2291.25,631.913C2288.87,631.787 2286.55,632.575 2284.29,633.318C2265.6,639.454 2246.12,643.196 2226.48,644.424C2215.71,645.099 2195.96,646.603 2199.15,662.611Z" style="fill:rgb(124,124,124);fill-rule:nonzero;"/>
        </g>
        <g transform="matrix(0.347308,0,0,0.686145,-494.355,-251.011)">
            <path d="M2241.34,892.397C2241.34,905.629 2236.84,918.478 2228.5,928.753C2198.32,965.956 2109.89,1046.78 1911.3,1046.75C1686.45,1046.73 1594.76,967.039 1564.04,929.517C1555.56,919.155 1550.91,906.194 1550.91,892.804L1552.94,584.086L2241.34,584.086L2241.34,892.397Z" style="fill:rgb(104,104,104);fill-rule:nonzero;"/>
        </g>
        <g transform="matrix(0.347308,0,0,0.686145,-494.355,-251.011)">
            <path d="M2228.5,928.753C2236.84,918.478 2241.34,905.629 2241.34,892.397L2241.34,584.086L2030.54,584.086C2020.41,606.16 2017.3,630.908 2024.41,654.306C2028.47,653.859 2032.53,653.414 2036.59,652.968L2066.78,651.214C2087.15,699.875 2103.79,750.656 2108.73,803.177C2111.83,836.027 2110.2,869.792 2099.34,900.948C2088.47,932.103 2067.72,960.532 2038.86,976.539C2017.02,988.658 1991.87,993.167 1967.16,996.848C1886.13,1008.92 1802.19,1013.86 1723.26,991.892C1652.61,972.227 1586.08,928.019 1550.91,864.473L1550.91,892.804C1550.91,906.194 1555.56,919.155 1564.04,929.517C1594.76,967.039 1686.45,1046.73 1911.3,1046.75C2109.89,1046.78 2198.32,965.956 2228.5,928.753Z" style="fill:rgb(89,89,89);fill-rule:nonzero;"/>
        </g>
        <g transform="matrix(0.347308,0,0,0.686145,-494.355,-251.011)">
            <path d="M1911.3,1022.03C1686.45,1022 1594.76,942.317 1564.04,904.794C1555.56,894.433 1550.91,881.472 1550.91,868.081L1550.91,892.804C1550.91,906.194 1555.56,919.155 1564.04,929.517C1594.76,967.039 1686.45,1046.73 1911.3,1046.75C2109.89,1046.78 2198.32,965.956 2228.5,928.753C2236.84,918.478 2241.34,905.629 2241.34,892.397L2241.34,867.674C2241.34,880.906 2236.84,893.755 2228.5,904.03C2198.32,941.234 2109.89,1022.05 1911.3,1022.03Z" style="fill:rgb(73,73,73);fill-rule:nonzero;"/>
        </g>
        <g transform="matrix(0.347308,0,0,0.686145,-494.355,-251.011)">
            <path d="M2242.76,584.086C2242.76,651.653 2088.2,713.735 1897.55,713.735C1706.89,713.735 1552.33,658.961 1552.33,591.392C1552.33,523.825 1706.89,469.05 1897.55,469.05C2088.2,469.05 2242.76,516.517 2242.76,584.086Z" style="fill:rgb(124,124,124);fill-rule:nonzero;"/>
        </g>
        <g transform="matrix(0.347308,0,0,0.686145,-494.355,-251.011)">
            <path d="M2223.31,588.329C2223.31,650.243 2077.46,700.434 1897.55,700.434C1717.63,700.434 1571.78,650.243 1571.78,588.329C1571.78,526.415 1717.63,476.224 1897.55,476.224C2077.46,476.224 2223.31,526.415 2223.31,588.329Z" style="fill:rgb(53,53,53);fill-rule:nonzero;"/>
        </g>
        <g transform="matrix(0.347308,0,0,0.686145,-494.355,-251.011)">
            <path d="M1896.13,542.911C1749.95,542.911 1626.26,576.042 1585.01,621.673C1626.26,667.304 1749.95,700.434 1896.13,700.434C2042.3,700.434 2165.99,667.304 2207.24,621.673C2165.99,576.042 2042.3,542.911 1896.13,542.911Z" style="fill:rgb(234,197,131);fill-rule:nonzero;"/>
        </g>
        <g transform="matrix(0.347308,0,0,0.686145,-494.355,-251.011)">
            <path d="M1661.19,928.402C1657.3,928.401 1653.43,927.162 1649.73,925.85C1622.59,916.232 1594.94,899.313 1586.44,871.799C1582.68,859.607 1583.1,846.569 1583.57,833.817C1584.56,806.653 1585.54,779.488 1586.53,752.324C1587.15,735.166 1581.29,698.924 1594.31,685.329C1598.72,680.718 1604.01,678.829 1609.46,678.829C1620.3,678.829 1631.75,686.297 1638.18,694.683C1653.22,714.323 1648.01,741.551 1647.02,764.398C1645.41,801.697 1653.17,839.363 1669.4,872.983C1674.17,882.861 1679.77,892.817 1680.28,903.775C1680.79,914.733 1674.08,927.011 1663.19,928.287C1662.52,928.365 1661.86,928.402 1661.19,928.402Z" style="fill:rgb(116,116,116);fill-rule:nonzero;"/>
        </g>
        <g transform="matrix(0.347308,0,0,0.686145,-494.355,-251.011)">
            <path d="M1696.27,630.671C1696.34,634.879 1697.18,639.294 1699.91,642.493C1703.58,646.78 1709.67,647.894 1715.28,648.475C1724.92,649.476 1734.75,649.69 1744.23,647.648C1753.71,645.606 1762.87,641.161 1769.35,633.957C1758.64,632.731 1748.05,630.379 1737.82,626.95C1731.78,624.924 1725.05,621.618 1723.73,615.385C1722.74,610.738 1725.94,604.677 1720.82,603.079C1719.47,602.657 1711.3,606.784 1709.56,607.74C1700.46,612.736 1696.09,620.116 1696.27,630.671Z" style="fill:rgb(237,126,93);fill-rule:nonzero;"/>
        </g>
        <g transform="matrix(0.347308,0,0,0.686145,-494.355,-251.011)">
            <path d="M1951.35,583.556C1951.7,579.363 1951.32,574.886 1948.92,571.425C1945.72,566.788 1939.77,565.058 1934.25,563.908C1924.76,561.932 1915,560.717 1905.36,561.784C1895.73,562.85 1886.17,566.339 1878.98,572.846C1889.51,575.157 1899.81,578.576 1909.63,583.028C1915.44,585.658 1921.79,589.632 1922.47,595.968C1922.98,600.691 1919.19,606.395 1924.12,608.506C1925.42,609.063 1933.96,605.79 1935.79,605.014C1945.35,600.972 1950.45,594.075 1951.35,583.556Z" style="fill:rgb(237,126,93);fill-rule:nonzero;"/>
        </g>
        <g transform="matrix(0.347308,0,0,0.686145,-494.355,-251.011)">
            <path d="M2055.05,643.228C2055.51,645.205 2056.74,647.131 2059.72,648.117C2063.72,649.437 2069.8,648.785 2075.36,647.976C2084.91,646.584 2094.58,644.785 2103.69,641.986C2112.79,639.187 2121.36,635.313 2127.05,630.649C2116.43,632.142 2105.82,633.076 2095.47,633.432C2089.35,633.642 2082.44,633.377 2080.56,630.684C2079.16,628.677 2081.73,625.19 2076.56,625.424C2075.19,625.486 2067.57,629.018 2065.94,629.808C2057.49,633.931 2053.89,638.268 2055.05,643.228Z" style="fill:rgb(237,126,93);fill-rule:nonzero;"/>
        </g>
        <g transform="matrix(0.347308,0,0,0.686145,-494.355,-251.011)">
            <path d="M1758.55,570.169C1777.7,558.344 1802.81,553.724 1822.82,564.034C1830.29,567.882 1837.26,574.733 1837.26,583.136C1837.26,590.112 1832.28,596.347 1826.18,599.725C1820.08,603.104 1812.98,604.125 1806.04,604.831C1790.11,606.449 1764.38,609.565 1749.58,601.763C1733.8,593.456 1747.96,576.706 1758.55,570.169Z" style="fill:rgb(239,225,165);fill-rule:nonzero;"/>
        </g>
        <g transform="matrix(0.347308,0,0,0.686145,-494.355,-251.011)">
            <path d="M2001,633.203C2005.55,634.2 2010.17,635.559 2013.8,638.472C2017.44,641.386 2019.89,646.185 2018.85,650.722C2011.31,655.546 2001.62,654.335 1992.7,655.015C1983.97,655.681 1975.51,658.311 1966.84,659.49C1951.48,661.577 1930.57,660.729 1916.21,654.74C1918.65,642.275 1942.38,636.225 1952.95,633.72C1968.66,629.996 1985.21,629.746 2001,633.203Z" style="fill:rgb(239,225,165);fill-rule:nonzero;"/>
        </g>
        <g transform="matrix(0.347308,0,0,0.686145,-494.355,-251.011)">
            <path d="M2080.48,557.441C2084.09,558.248 2087.86,559.271 2090.51,561.855C2093.16,564.439 2094.16,569.076 2091.69,571.832C2090.42,573.25 2088.52,573.907 2086.71,574.482C2073.11,578.783 1979.96,596.364 1984.75,568.497C1986.83,556.374 2008.01,556.876 2017.31,555.453C2038.29,552.243 2059.75,552.81 2080.48,557.441Z" style="fill:rgb(239,225,165);fill-rule:nonzero;"/>
        </g>
        <g transform="matrix(0.347308,0,0,0.686145,-494.355,-251.011)">
            <path d="M1845.13,650.117C1848.96,651.498 1853.47,654.699 1852.11,658.529C1851.3,660.817 1848.72,661.873 1846.43,662.664C1839.23,665.145 1794.9,679.141 1797.06,659.71C1798.85,643.594 1836.3,646.927 1845.13,650.117Z" style="fill:rgb(239,225,165);fill-rule:nonzero;"/>
        </g>
        <g transform="matrix(0.347308,0,0,0.686145,-494.355,-251.011)">
            <path d="M1611.12,603.772C1613.23,595.21 1622.66,590.784 1631.24,588.76C1637.71,587.234 1644.35,586.39 1651,586.248C1658.67,586.083 1666.69,586.966 1673.13,591.144C1678.79,594.817 1682.91,601.974 1680.63,608.325C1679.3,612.045 1676.07,614.77 1672.67,616.774C1659.64,624.443 1603.1,636.335 1611.12,603.772Z" style="fill:rgb(239,225,165);fill-rule:nonzero;"/>
        </g>
        <g transform="matrix(0.347308,0,0,0.686145,-494.355,-251.011)">
            <path d="M2045.16,602.573C2055.12,595.732 2068.33,596.07 2080.19,598.367C2092.05,600.665 2103.78,604.664 2115.85,604.247C2125.43,603.917 2135.9,600.998 2144.01,606.102C2144.97,606.701 2145.9,607.46 2146.28,608.521C2146.92,610.352 2145.59,612.41 2143.83,613.236C2142.07,614.062 2140.04,613.968 2138.1,613.826C2122.45,612.678 2107.02,609.457 2091.38,608.204C2084,607.611 2076.4,607.483 2069.36,609.795C2064.68,611.333 2060.4,613.9 2055.8,615.67C2050.5,617.711 2044.85,618.667 2039.21,619.36C2025.6,621.037 2011.8,621.254 1998.14,620.008C1986.19,618.916 1973.86,616.748 1962.42,620.372C1960.59,620.952 1957.54,620.649 1958.03,618.791C1958.12,618.445 1958.34,618.154 1958.58,617.88C1968.55,606.06 1991.91,609.71 2004.9,613.038C2011.51,614.732 2017.72,616.748 2024.7,615.665C2033.53,614.296 2038.24,607.33 2045.16,602.573Z" style="fill:rgb(239,225,165);fill-rule:nonzero;"/>
        </g>
        <g transform="matrix(0.347308,0,0,0.686145,-494.355,-251.011)">
            <path d="M1818.44,623.794C1820.34,626.185 1823.69,626.802 1826.75,626.985C1830.17,627.191 1833.61,627.065 1837.04,626.938C1840.43,626.813 1843.81,626.689 1847.19,626.882C1858.15,627.509 1868.88,631.581 1877.5,638.378C1878.7,639.328 1879.92,640.411 1880.38,641.878C1881.16,644.403 1879.41,646.995 1877.49,648.821C1872.72,653.38 1865.9,656.864 1864.64,663.343C1864.41,664.544 1864.45,665.922 1865.28,666.811C1865.97,667.537 1867.02,667.762 1868,667.93C1882.9,670.484 1898.58,668.495 1912.94,673.213C1915.94,674.195 1919.09,675.708 1920.36,678.593C1920.97,680 1921.1,681.672 1922.14,682.808C1923.21,683.995 1924.96,684.25 1926.56,684.354C1932.54,684.745 1938.58,684.07 1944.32,682.369C1946.61,681.691 1949.33,679.223 1947.69,677.49C1947.24,677.013 1946.57,676.817 1945.92,676.689C1943.85,676.28 1941.67,676.346 1939.51,676.413C1936.07,676.519 1932.68,676.625 1929.86,674.81C1928.37,673.852 1927.23,672.45 1925.9,671.274C1919.89,665.932 1911.38,665.946 1903.09,665.96C1901.07,665.963 1899.07,665.967 1897.12,665.893C1893.39,665.753 1889.1,664.912 1887.31,661.632C1885.22,657.797 1887.81,653.137 1890.59,649.767C1893.37,646.397 1896.64,642.589 1895.94,638.28C1895.14,633.389 1889.76,630.877 1885.05,629.321C1871.57,624.863 1857.73,621.496 1843.7,619.263C1842.28,619.037 1840.7,618.73 1839.86,617.557C1838.17,615.198 1840.96,612.169 1843.61,610.985C1850.73,607.81 1858.81,607.906 1866.44,606.37C1868.32,605.993 1870.48,605.228 1870.98,603.381C1871.49,601.464 1869.81,599.625 1868.02,598.771C1863.2,596.474 1857.53,598.207 1852.49,599.962C1844.09,602.889 1835.69,605.816 1827.29,608.744C1823.23,610.157 1814.58,618.958 1818.44,623.794Z" style="fill:rgb(239,225,165);fill-rule:nonzero;"/>
        </g>
        <g transform="matrix(0.347308,0,0,0.686145,-494.355,-251.011)">
            <path d="M1662.87,638.7C1669.49,636.021 1675.14,631.46 1680.68,626.964C1683.98,628.883 1685.18,633.364 1684.1,637.03C1683.03,640.696 1680.11,643.577 1676.86,645.578C1671.15,649.09 1664.21,650.307 1657.53,649.748C1650.85,649.189 1644.4,646.94 1638.4,643.95C1637.82,643.664 1637.23,643.348 1636.87,642.814C1633.26,637.448 1644.65,639.746 1645.99,640.063C1651.72,641.407 1657.4,640.917 1662.87,638.7Z" style="fill:rgb(239,225,165);fill-rule:nonzero;"/>
        </g>
        <g transform="matrix(0.347308,0,0,0.686145,-494.355,-251.011)">
            <path d="M1742.12,662.357C1742.25,663.287 1742.82,664.102 1743.5,664.754C1746.75,667.9 1751.87,667.59 1756.39,667.63C1760.92,667.669 1766.35,668.974 1767.73,673.282C1768.1,674.438 1768.15,675.768 1768.97,676.661C1769.66,677.406 1770.71,677.659 1771.71,677.847C1777.31,678.908 1783.08,679.07 1788.73,678.328C1790.56,678.087 1792.45,677.719 1793.9,676.585C1795.35,675.452 1796.2,673.335 1795.34,671.704C1794.93,670.914 1794.19,670.348 1793.44,669.858C1790.54,667.953 1787.15,666.811 1783.69,666.576C1781.05,666.397 1778.33,666.723 1775.83,665.863C1773.33,665.003 1771.14,662.346 1772.01,659.851C1772.45,658.582 1773.55,657.679 1774.61,656.845C1776.01,655.738 1777.41,654.631 1778.81,653.524C1784.18,649.273 1763.81,650.42 1760.7,651.169C1756.03,652.292 1741.16,655.813 1742.12,662.357Z" style="fill:rgb(239,225,165);fill-rule:nonzero;"/>
        </g>
        <g transform="matrix(0.347308,0,0,0.686145,-494.355,-251.011)">
            <path d="M1765.71,595.746C1765.03,595.746 1764.34,595.672 1763.68,595.563C1760.38,595.023 1756.78,593.164 1756.23,589.869C1755.95,588.187 1756.54,586.486 1757.25,584.935C1761.13,576.41 1769.15,569.851 1777.98,566.867C1779.37,566.397 1781.71,566.085 1784.24,566.085C1790.8,566.085 1798.64,568.181 1794.56,575.045C1793.2,577.328 1790.3,578.05 1787.72,578.714C1782.2,580.138 1776.42,582.575 1773.62,587.545C1772.11,590.219 1771.38,593.679 1768.66,595.102C1767.75,595.576 1766.74,595.746 1765.71,595.746Z" style="fill:rgb(249,243,219);fill-rule:nonzero;"/>
        </g>
        <g transform="matrix(0.347308,0,0,0.686145,-494.355,-251.011)">
            <path d="M2005.68,572.745C2003.19,572.744 2000.53,571.051 2000.68,568.607C2000.81,566.524 2002.8,565.107 2004.64,564.12C2015.86,558.097 2029.69,556.816 2042.48,556.816C2043.73,556.816 2044.97,556.828 2046.19,556.849C2047.03,556.863 2048.14,557.147 2048.14,557.985C2048.14,558.572 2047.55,558.967 2047.03,559.232C2036.67,564.456 2023.7,562.895 2013.8,568.927C2011.46,570.352 2009.25,572.211 2006.55,572.672C2006.27,572.721 2005.98,572.745 2005.68,572.745Z" style="fill:rgb(249,243,219);fill-rule:nonzero;"/>
        </g>
        <g transform="matrix(0.347308,0,0,0.686145,-494.355,-251.011)">
            <path d="M1627.24,617.529C1624.62,617.529 1621.97,615.757 1620.85,613.301C1619.43,610.164 1620.15,606.371 1621.95,603.437C1623.75,600.502 1626.51,598.285 1629.32,596.299C1634.03,592.98 1637.23,592.342 1642.2,592.342C1642.5,592.342 1642.82,592.344 1643.13,592.349C1644.95,594.335 1646.93,596.241 1649.04,598.077C1648.29,597.953 1647.53,597.892 1646.77,597.892C1643.87,597.892 1640.96,598.775 1638.58,600.439C1635.32,602.716 1633.1,606.417 1632.62,610.361C1632.43,611.988 1632.49,613.726 1631.66,615.14C1631.15,616.022 1630.31,616.697 1629.37,617.099C1628.69,617.393 1627.97,617.529 1627.24,617.529Z" style="fill:rgb(249,243,219);fill-rule:nonzero;"/>
        </g>
        <g transform="matrix(0.347308,0,0,0.686145,-494.355,-251.011)">
            <path d="M1808.34,663.075C1807.13,663.075 1805.99,662.628 1805.42,661.592C1804.36,659.652 1806.07,657.363 1807.82,656.012C1809.37,654.809 1811.06,653.789 1812.84,653.003C1813.77,655.003 1814.89,656.93 1816.17,658.756C1815.87,658.9 1815.57,659.06 1815.28,659.236C1813.63,660.235 1812.3,661.733 1810.57,662.57C1809.89,662.895 1809.1,663.075 1808.34,663.075Z" style="fill:rgb(249,243,219);fill-rule:nonzero;"/>
        </g>
        <g transform="matrix(0.347308,0,0,0.686145,-494.355,-251.011)">
            <path d="M1940.03,649.54C1938.18,649.54 1936.33,648.92 1936.16,647.212C1936.02,645.69 1937.46,644.536 1938.77,643.754C1947.81,638.376 1958.29,636.219 1968.81,636.219C1974.58,636.219 1980.36,636.866 1985.92,637.986C1981.13,639.752 1976.21,641.424 1971.24,642.972C1970.51,642.943 1969.78,642.926 1969.05,642.926C1967.92,642.926 1966.78,642.967 1965.65,643.069C1957.43,643.812 1949.83,647.701 1941.74,649.368C1941.21,649.478 1940.62,649.54 1940.03,649.54Z" style="fill:rgb(249,243,219);fill-rule:nonzero;"/>
        </g>
        <g transform="matrix(0.347308,0,0,0.686145,-494.355,-251.011)">
            <path d="M1715.7,633.488C1714.67,632.977 1713.66,632.453 1712.65,631.914C1713.67,632.423 1714.69,632.947 1715.7,633.488Z" style="fill:rgb(242,163,140);fill-rule:nonzero;"/>
        </g>
        <g transform="matrix(0.347308,0,0,0.686145,-494.355,-251.011)">
            <path d="M1649.94,598.256C1649.65,598.186 1649.35,598.126 1649.04,598.077C1646.93,596.241 1644.95,594.335 1643.13,592.349C1643.57,592.355 1644.03,592.364 1644.5,592.376C1646.25,592.421 1648.11,592.598 1649.47,593.699C1650.83,594.8 1651.29,597.141 1649.94,598.256Z" style="fill:rgb(251,246,229);fill-rule:nonzero;"/>
        </g>
        <g transform="matrix(0.347308,0,0,0.686145,-494.355,-251.011)">
            <path d="M1816.17,658.756C1814.89,656.93 1813.77,655.003 1812.84,653.003C1815,652.047 1817.3,651.436 1819.69,651.262C1820.47,651.205 1822.17,651.104 1824.03,651.104C1827.11,651.104 1830.65,651.38 1831.23,652.585C1831.73,653.602 1830.75,654.721 1829.76,655.282C1825.68,657.607 1820.37,656.764 1816.17,658.756Z" style="fill:rgb(251,246,229);fill-rule:nonzero;"/>
        </g>
        <g transform="matrix(0.347308,0,0,0.686145,-494.355,-251.011)">
            <path d="M1983.91,643.713C1981.44,643.713 1978.97,643.516 1976.49,643.319C1974.74,643.181 1972.99,643.042 1971.24,642.972C1976.21,641.424 1981.13,639.752 1985.92,637.986C1987.38,638.279 1988.83,638.605 1990.25,638.961C1991.42,639.252 1992.83,639.867 1992.84,641.07C1992.85,642.274 1991.43,642.906 1990.25,643.144C1988.15,643.566 1986.03,643.713 1983.91,643.713Z" style="fill:rgb(251,246,229);fill-rule:nonzero;"/>
        </g>
    </g>
</svg>
